<?xml version="1.0" encoding="UTF-8"?>
<!-- Created with Inkscape (http://www.inkscape.org/) -->
<svg width="100" height="15" version="1.1" viewBox="0 0 26.458 3.9688" xmlns="http://www.w3.org/2000/svg">
 <g fill="#ffd4f1">
  <path d="m2.6847 0.77809-0.00135 6.728e-4 -2.0883 1.2056 2.0883 1.2056 0.00135 6.728e-4v-6.728e-4h19.816c0.18785 0 0.33908-0.15123 0.33908-0.33908v-1.7331c0-0.18785-0.15123-0.33908-0.33908-0.33908h-19.816zm7.2719 0.95123c0.12897-5.1e-5 0.23353 0.10451 0.23348 0.23348 5.1e-5 0.12897-0.10451 0.23353-0.23348 0.23348-0.12897 5.09e-5 -0.23353-0.10451-0.23348-0.23348-5.09e-5 -0.12897 0.10451-0.23353 0.23348-0.23348zm-4.2149 0.015002c0.12897-5.09e-5 0.23353 0.10451 0.23348 0.23348 5.09e-5 0.12897-0.10451 0.23353-0.23348 0.23348-0.12897 5.09e-5 -0.23353-0.10451-0.23348-0.23348-5.09e-5 -0.12897 0.10451-0.23353 0.23348-0.23348zm-2.1079 0.0065646c0.12897-5.1e-5 0.23353 0.10451 0.23348 0.23348 5.09e-5 0.12897-0.10451 0.23353-0.23348 0.23348-0.12897 5.1e-5 -0.23353-0.10451-0.23348-0.23348-5.09e-5 -0.12897 0.10451-0.23353 0.23348-0.23348zm4.198 0.021567c0.00594-2.267e-4 0.011875-2.267e-4 0.017816 0 0.12897-5.09e-5 0.23353 0.10451 0.23348 0.23348 5.12e-5 0.12897-0.10451 0.23353-0.23348 0.23348-0.12897 5.1e-5 -0.23353-0.10451-0.23348-0.23348-4.014e-4 -0.12232 0.093703-0.2242 0.21567-0.23348z"/>
  <path d="m22.806 0.33942c-0.12889 0-0.23231 0.10342-0.23231 0.23232v2.8253c0 0.12889 0.10343 0.23232 0.23231 0.23232h2.8253c0.12889 0 0.23231-0.10342 0.23231-0.23232v-2.8253c0-0.12889-0.10343-0.23232-0.23231-0.23232zm0.31661 0.36846h2.1921c0.10002 0 0.18046 0.080435 0.18046 0.18046v2.1921c0 0.10002-0.08045 0.18046-0.18046 0.18046h-2.1921c-0.10003 0-0.18046-0.080437-0.18046-0.18046v-2.1921c0-0.10002 0.08045-0.18046 0.18046-0.18046z"/>
  <rect x="22.676" y="1.7979" width="2.3367" height=".37297" ry=".17223"/>
 </g>
</svg>
