<?xml version="1.0" encoding="UTF-8"?>
<!-- Created with Inkscape (http://www.inkscape.org/) -->
<svg width="512" height="512" version="1.1" viewBox="0 0 135.47 135.47" xmlns="http://www.w3.org/2000/svg">
 <g fill="#ffd4f1">
  <path d="m108.65 55.063c19.396-7.1672 24.051-37.501 5.7165-18.949-0.14276-1.3356-0.78214-7.1147-3.8896-8.4298-2.5698-1.0876-4.8476 1.6892-5.8807 3.2617-4.9265 7.4988 2.7138 25.302 4.0538 24.117z"/>
  <path d="m109.17 56.461c2.0442-0.75538 4.449-1.9438 6.9509-3.8439 1.894-1.4383 3.7073-3.1827 5.3456-5.2106 1.4531-1.7986 2.7038-3.7422 3.687-5.7153 0.93319-1.8728 1.6063-3.7357 1.965-5.44 0.17803-0.84592 0.27998-1.6597 0.29474-2.4198 0.0149-0.7656-0.0583-1.5002-0.24688-2.1685-0.0963-0.34129-0.22439-0.67099-0.39015-0.98053-0.16864-0.31493-0.37615-0.60859-0.62694-0.86957-0.25636-0.26677-0.55011-0.49116-0.87761-0.66677-0.33457-0.1794-0.69007-0.30027-1.0564-0.36937-0.76007-0.1434-1.5438-0.06075-2.2979 0.14676-0.81939 0.22549-1.6572 0.61284-2.4872 1.0996-2.1049 1.2343-4.2945 3.197-6.1199 5.0441l2.5414 0.889c-0.0146-0.13629-0.043-0.40261-0.0845-0.72408-0.036-0.27879-0.0876-0.6453-0.15948-1.065-0.12106-0.7063-0.32192-1.6952-0.651-2.7277-0.28965-0.90874-0.71291-1.9612-1.3384-2.8979-0.29825-0.44669-0.65487-0.88593-1.0821-1.2743-0.41708-0.37915-0.90615-0.71392-1.475-0.95466-0.46089-0.19506-0.93264-0.31109-1.4088-0.34959-0.4681-0.03785-0.92189 6.92e-4 -1.3543 0.09723-0.84848 0.18942-1.5948 0.59698-2.2207 1.0602-0.62697 0.46405-1.1694 1.0109-1.6146 1.5292-0.45554 0.53032-0.83003 1.0551-1.1084 1.4787-0.74627 1.1359-1.2208 2.4207-1.5063 3.7411-0.29367 1.3581-0.39484 2.7876-0.37165 4.2 0.049 2.985 0.65538 6.0488 1.365 8.5924 0.39018 1.3987 0.82358 2.6847 1.2495 3.8004 0.46193 1.2099 0.92355 2.2425 1.3442 3.0656 0.22798 0.44607 0.44827 0.83929 0.65778 1.1775 0.2218 0.358 0.44226 0.67185 0.66088 0.93087 0.11645 0.13796 0.24163 0.27142 0.37593 0.39217 0.13729 0.12344 0.30824 0.2555 0.51267 0.36242 0.10836 0.05667 0.2355 0.11121 0.37992 0.15179 0.14939 0.04198 0.32168 0.07019 0.51085 0.06724 0.19759-0.0031 0.39936-0.0401 0.59516-0.11661 0.20146-0.07872 0.37219-0.18965 0.51211-0.31339zm-1.5035-2.5138c0.0987-0.08732 0.22462-0.17019 0.37741-0.22989 0.14864-0.05808 0.29968-0.08516 0.44285-0.0874 0.13633-0.0021 0.25231 0.01835 0.34181 0.0435 0.0862 0.02421 0.1517 0.05379 0.19503 0.07645 0.086 0.04496 0.10658 0.06933 0.0987 0.06227-0.01-0.0088-0.0403-0.03813-0.0911-0.09831-0.097-0.1149-0.23308-0.30085-0.4049-0.57818-0.15889-0.25648-0.33945-0.57672-0.53749-0.96421-0.36568-0.7155-0.78479-1.6488-1.2138-2.7723-0.39477-1.034-0.79891-2.2325-1.1631-3.5382-0.66854-2.3966-1.2123-5.1946-1.2558-7.8406-0.0205-1.2459 0.0707-2.4392 0.30473-3.5212 0.22755-1.0523 0.58467-1.9743 1.0842-2.7347 0.22765-0.34652 0.52611-0.76327 0.87827-1.1732 0.34813-0.40528 0.72984-0.78174 1.1269-1.0756 0.39964-0.29579 0.76858-0.47372 1.0971-0.54706 0.16252-0.03628 0.31615-0.04736 0.46485-0.03533 0.15024 0.01215 0.3115 0.04914 0.4875 0.12363 0.21699 0.09184 0.42691 0.22903 0.63191 0.41538 0.21251 0.19318 0.41593 0.43593 0.60826 0.72398 0.41235 0.6176 0.73314 1.3817 0.97746 2.1482 0.27207 0.85357 0.44506 1.6958 0.55308 2.3261 0.0633 0.36941 0.10903 0.69384 0.14117 0.94291 0.037 0.28702 0.0626 0.52606 0.0769 0.65943 0.117 1.0947 0.21942 2.1908 0.30722 3.2882 0.72078-0.8217 1.4658-1.6218 2.2341-2.3992 1.7895-1.8107 3.7408-3.5321 5.5077-4.5682 0.68416-0.40118 1.2772-0.66126 1.7705-0.79703 0.45612-0.12552 0.76421-0.12756 0.95473-0.09161 0.0878 0.01656 0.15198 0.04123 0.20061 0.06731 0.0471 0.02528 0.0922 0.05856 0.13713 0.10531 0.045 0.04681 0.0964 0.11411 0.1486 0.21153 0.0518 0.09674 0.10385 0.22244 0.14922 0.38319 0.0905 0.3208 0.14608 0.75176 0.13541 1.3012-0.0105 0.54029-0.0844 1.1655-0.23142 1.8639-0.29717 1.4121-0.87391 3.0346-1.716 4.7246-0.88381 1.7737-2.0162 3.5357-3.3378 5.1717-1.4887 1.8428-3.1292 3.4187-4.8298 4.7101-2.2423 1.7028-4.3816 2.7567-6.1816 3.4219z"/>
  <path d="m49.542 49.419c1.4171 1.152 7.364-27.804 1.6245-40.293-3.1392-6.8305-9.7901-9.0587-13.953-4.02-2.7967 3.3847-4.073 9.8217-3.8365 14.694-2.9801-2.1291-5.4596-5.2264-8.8037-6.1801-7.9872-2.2777-11.474 5.5152-8.0741 12.733 6.2691 13.309 22.4 15.486 33.043 23.066z"/>
  <path d="m48.698 50.458c0.17832 0.14497 0.42215 0.27537 0.7247 0.31867 0.29274 0.0419 0.55756-0.0097 0.7697-0.09588 0.19736-0.08018 0.34865-0.18935 0.45582-0.28242 0.10598-0.09202 0.19188-0.1884 0.26003-0.27465 0.12923-0.16353 0.2367-0.34441 0.3272-0.51845 0.089-0.17114 0.17538-0.36252 0.25988-0.57035 0.1592-0.39156 0.32566-0.87601 0.49824-1.4523 0.16222-0.54172 0.33315-1.1759 0.50928-1.9013 0.32496-1.3385 0.6749-3.0191 1.0101-4.9874 0.30899-1.8143 0.60974-3.8997 0.85695-6.1607 0.45102-4.1251 0.74299-9.0218 0.50152-13.749-0.11408-2.2334-0.3489-4.4579-0.75324-6.5482-0.39255-2.0294-0.95115-3.9653-1.7342-5.669-0.83451-1.8158-1.9244-3.3858-3.2059-4.6226-1.2542-1.2105-2.6891-2.0979-4.215-2.5606-1.5322-0.46464-3.1267-0.49075-4.6535-0.013873-1.5583 0.48673-2.9601 1.4697-4.1283 2.8834-0.81703 0.98884-1.4773 2.1528-2.0056 3.3517-0.57054 1.2947-1.0014 2.6619-1.3193 3.9756-0.48096 1.9878-0.70958 3.8493-0.79846 5.4239-0.62555-0.5347-1.3231-1.134-2.0956-1.7692-0.68592-0.56399-1.4701-1.1678-2.3234-1.6891-0.7995-0.48843-1.6961-0.92782-2.6982-1.2136-1.0973-0.31291-2.155-0.46499-3.1613-0.45414-0.99218 0.0107-1.926 0.17988-2.7848 0.50144-0.85068 0.31852-1.6111 0.78041-2.2689 1.3617-0.65373 0.57759-1.1963 1.2642-1.6262 2.0273-0.86092 1.5286-1.2644 3.3486-1.235 5.2503 0.03001 1.9423 0.51132 3.9684 1.4234 5.9047 1.7007 3.6106 4.0561 6.3752 6.6511 8.5991 2.7677 2.372 5.8945 4.196 8.83 5.7029 3.3639 1.7268 6.605 3.1299 9.4267 4.4722 3.7236 1.7713 6.3319 3.2179 8.5701 4.8119zm1.6216-2.1299c-2.4181-1.7222-5.1825-3.2457-8.9733-5.049-2.8715-1.366-6.0999-2.7658-9.3541-4.4363-2.8563-1.4662-5.7725-3.1789-8.3103-5.3539-2.3628-2.025-4.4597-4.4983-5.971-7.7068-0.7623-1.6184-1.1447-3.2711-1.1684-4.8048-0.02325-1.5047 0.2993-2.8447 0.89064-3.8946 0.2936-0.52129 0.65184-0.96874 1.0659-1.3346 0.41524-0.36687 0.89348-0.65788 1.4347-0.86054 0.54722-0.2049 1.1709-0.32395 1.8745-0.33154 0.71606-0.0077 1.5159 0.10009 2.3979 0.35162 0.71143 0.20288 1.3847 0.52535 2.0364 0.92353 0.70005 0.42767 1.3748 0.94288 2.0187 1.4723 1.6552 1.361 3.158 2.7435 4.3374 3.5861 0.76733 0.5482 1.5725 1.0414 2.4095 1.4759-0.15262-0.86985-0.25061-1.7484-0.29342-2.6305-0.08033-1.6553-0.0058-4.4227 0.74488-7.5251 0.28911-1.1949 0.67366-2.4059 1.167-3.5254 0.45932-1.0423 1.0009-1.9772 1.6195-2.7257 0.88314-1.0688 1.8571-1.719 2.8621-2.0329 0.97718-0.30523 2.0213-0.29992 3.0777 0.020429 1.0626 0.32221 2.1374 0.96449 3.1322 1.9246 1.0151 0.97977 1.9207 2.2657 2.6323 3.814 0.66836 1.4543 1.173 3.1714 1.5382 5.0593 0.37492 1.9383 0.59855 4.0338 0.70798 6.1762 0.23191 4.5402-0.04792 9.2859-0.48914 13.321-0.24115 2.2056-0.53436 4.238-0.8348 6.0022-0.32617 1.9152-0.66401 3.5345-0.97251 4.8051-0.16717 0.68857-0.32602 1.2763-0.47232 1.7649-0.15705 0.52446-0.29625 0.92335-0.41356 1.2119-0.06205 0.15262-0.11408 0.2647-0.155 0.34338-0.04159 0.07998-0.07073 0.11682-0.0524 0.09362 0.0074-0.0093 0.03503-0.04341 0.08531-0.08707 0.04993-0.04336 0.14668-0.11755 0.29214-0.17665 0.15869-0.06447 0.37292-0.1091 0.61781-0.07406 0.25316 0.03623 0.45057 0.14485 0.58534 0.25442z"/>
  <path d="m80.617 124.93c1.8548-5.7038 4.0243-17.621 6.0916-24.075 3.4406-10.742 13.036-28.367 9.7956-41.144-2.5033-9.8705-15.965-11.268-25.025-5.092-7.5799 5.1672-7.2461 14.05-9.2836 19.027-3.1876-4.6527-10.334-11.727-17.016-11.636-12.95 0.17675-22.615 6.8917-20.627 18.36 3.7339 21.538 13.046 21.795 32.608 31.804 5.8441 2.9902 23.461 14.975 23.457 12.757z" stroke-width=".88621"/>
  <path d="m78.965 124.39c0.38823-1.1939 0.83767-2.8148 1.4086-5.1379 0.47461-1.9311 0.94037-3.9604 1.5163-6.4698 0.4784-2.0843 1.0287-4.481 1.5692-6.6652 0.50582-2.0442 1.0462-4.0816 1.595-5.7951 0.87336-2.7267 2.1092-5.8224 3.4772-9.2738 1.3049-3.2923 2.7275-6.9029 3.9307-10.549 1.1829-3.585 2.1604-7.2225 2.6415-10.719 0.4772-3.4683 0.45628-6.7288-0.28321-9.6447-0.26816-1.0574-0.67853-1.9845-1.1989-2.7923-0.5225-0.81109-1.1639-1.5144-1.903-2.1133-1.4982-1.214-3.4139-2.0106-5.5569-2.3719-2.1991-0.37079-4.5834-0.27404-6.9184 0.25481-2.4334 0.55115-4.7591 1.5577-6.7854 2.939-1.7433 1.1884-2.9717 2.5642-3.8847 3.9657-0.99843 1.5327-1.6644 3.1692-2.1598 4.714-0.54997 1.715-0.95506 3.5502-1.281 4.9577-0.33099 1.4291-0.60552 2.5434-0.95175 3.5869-0.11006 0.33173-0.2349 0.67795-0.37716 1.0255-0.40644 0.9929-0.92939 1.934-1.5579 2.8035-0.44279-0.85634-0.93803-1.6845-1.4829-2.4798-0.64348-0.93925-1.6107-2.2018-2.9034-3.5934-1.0784-1.1609-2.4129-2.4415-3.9245-3.6121-1.3578-1.0515-2.8619-2.0161-4.4191-2.6947-1.4496-0.63168-2.91-1-4.3118-0.98092-3.0292 0.04135-5.9051 0.45826-8.4765 1.2532-2.4847 0.76818-4.6435 1.8769-6.355 3.2936-1.6694 1.3818-2.9093 3.0525-3.6268 4.9957-0.7103 1.9238-0.93255 4.18-0.48117 6.7836 0.91708 5.2898 2.1579 9.1462 3.7421 12.13 0.79589 1.4992 1.6815 2.7837 2.6621 3.9206 0.98958 1.1473 2.0879 2.1581 3.308 3.0913 2.4956 1.9087 5.511 3.4996 9.1134 5.2294 3.87 1.8583 7.8981 3.6429 12.862 6.1826 0.78445 0.40138 1.7397 0.94034 2.7724 1.545 1.0696 0.62629 2.2594 1.345 3.4723 2.0852 2.5984 1.5857 5.3573 3.2993 7.7817 4.7596 1.3253 0.79832 2.534 1.5122 3.6197 2.1308 1.1714 0.66738 2.1515 1.1961 2.9454 1.5872 0.4237 0.20874 0.77938 0.37085 1.0726 0.49151 0.31684 0.13039 0.52628 0.19802 0.64941 0.22833 0.05802 0.0143 0.08217 0.0148 0.04991 0.0122-0.01839-1e-3 -0.14457-0.0113-0.32729 0.0355-0.10107 0.0259-0.22903 0.0712-0.36835 0.1537-0.14573 0.0863-0.29111 0.20634-0.416 0.36448-0.12783 0.16186-0.21164 0.33502-0.26147 0.49942-0.04976 0.16419-0.06226 0.30771-0.06207 0.41337zm3.3891 0.53404c3.17e-4 0.17411-0.02045 0.38017-0.08728 0.60068-0.06649 0.21937-0.17534 0.44154-0.33695 0.64618-0.15792 0.19995-0.34466 0.35585-0.54042 0.47176-0.18828 0.11147-0.37348 0.17984-0.54035 0.22255-0.31046 0.0795-0.59648 0.079-0.80868 0.0622-0.21296-0.0169-0.41828-0.0559-0.60568-0.10204-0.35487-0.0874-0.73994-0.22391-1.1413-0.38909-0.38548-0.15865-0.81484-0.35576-1.2858-0.58777-0.88074-0.43391-1.9272-0.99996-3.1298-1.6851-1.1189-0.63743-2.3536-1.3669-3.6926-2.1735-2.4528-1.4775-5.2193-3.1958-7.7988-4.77-1.2069-0.73656-2.3757-1.4424-3.418-2.0528-1.0146-0.59411-1.9034-1.0941-2.5995-1.4502-4.9186-2.5167-8.798-4.23-12.783-6.1436-3.6276-1.742-6.9208-3.4606-9.7202-5.6016-1.3857-1.0598-2.6639-2.2318-3.8283-3.5818-1.1549-1.339-2.186-2.8392-3.0999-4.5607-1.8121-3.4133-3.1409-7.6533-4.0966-13.166-0.54465-3.1416-0.2988-6.0238 0.64517-8.5804 0.95239-2.5794 2.5831-4.7407 4.6706-6.4687 2.1259-1.7597 4.7118-3.0608 7.5442-3.9365 2.9345-0.90724 6.1447-1.3627 9.4553-1.4079 2.0317-0.02773 3.9894 0.5039 5.7471 1.2699 1.8938 0.82529 3.6463 1.9618 5.1584 3.1328 1.6915 1.3099 3.1646 2.7261 4.3427 3.9944 1.4142 1.5224 2.4878 2.9196 3.2241 3.9943l-3.0408 0.32372c0.10631-0.2597 0.2042-0.5298 0.29497-0.80338 0.29082-0.87651 0.53464-1.8522 0.86457-3.2767 0.31153-1.3451 0.75281-3.3494 1.3574-5.2347 0.55051-1.7167 1.3311-3.6676 2.557-5.5495 1.1331-1.7395 2.6757-3.4655 4.8389-4.9401 2.3942-1.6321 5.1248-2.8112 7.9749-3.4567 2.7299-0.6183 5.5729-0.74593 8.2635-0.29228 2.6197 0.4417 5.1213 1.4413 7.1664 3.0984 1.012 0.82002 1.9053 1.7961 2.6365 2.9311 0.72899 1.1316 1.2876 2.407 1.6459 3.8197 0.8838 3.4849 0.8731 7.2241 0.3574 10.972-0.52074 3.7848-1.566 7.6428-2.784 11.334-1.2395 3.7566-2.6984 7.4567-4.0002 10.741-1.3843 3.4925-2.5689 6.464-3.3983 9.0535-0.51281 1.601-1.0311 3.549-1.5312 5.5698-0.53211 2.1505-1.0758 4.5179-1.5555 6.6079-0.57456 2.5033-1.0465 4.5599-1.5287 6.5219-0.57967 2.3585-1.0523 4.0722-1.4785 5.383z"/>
 </g>
</svg>
