<?xml version="1.0" encoding="UTF-8"?>
<!-- Created with Inkscape (http://www.inkscape.org/) -->
<svg width="512" height="512" version="1.1" viewBox="0 0 135.47 135.47" xmlns="http://www.w3.org/2000/svg">
 <g fill="#ffd4f1" stroke-linecap="round">
  <path d="m29.77 45.397c-6.6198-3.2949-1.6507-10.665 2.9766-4.5009 2.2313 2.9726 0.63379 6.5494-2.9766 4.5009z" stroke-width=".072198"/>
  <path d="m31.729 37.425c-0.74782-0.91967-1.178-2.695-1.2664-3.3229-0.67795-4.8176 3.9725-5.7311 6.3041-2.1538 3.6536 5.6053-1.5241 9.7978-5.0378 5.4767z" stroke-width=".08307"/>
  <path d="m39.863 29.899c2.8756-5.1652 6.0284-0.19188 5.1863 3.8086-1.3582 6.4521-6.0019 4.2665-6.0846 0.91343-0.16909-1.8264 0.36436-3.7629 0.89834-4.7221z" stroke-width=".08307"/>
  <path d="m45.083 38.649c-0.0057-1.4499 0.59505-3.5921 1.7185-4.4004 2.9501-2.1226 4.7446 1.6506 3.4548 4.7635-1.4081 3.3983-5.1612 2.6526-5.1733-0.36314z" stroke-width=".09374"/>
  <path d="m43 50.837c-0.70963-0.27462-1.0776-0.13044-1.4208 0.31724-4.384 5.7178-10.913-1.4932-5.0295-5.5315 0.54257-0.37241 0.9735-1.0894 0.53321-1.7223-3.2865-4.7244 5.874-7.9052 6.0618-1.2886 0.0199 0.70064 0.58099 1.2666 1.1435 1.2431 6.1792-0.25758 4.8374 9.3526-1.2883 6.982z" stroke-width=".13188"/>
  <path d="m69.881 56.136c-6.6198-3.2949-1.6507-10.665 2.9766-4.5009 2.2313 2.9726 0.63379 6.5494-2.9766 4.5009z" stroke-width=".072198"/>
  <path d="m71.84 48.163c-0.74782-0.91967-1.178-2.695-1.2664-3.3229-0.67795-4.8176 3.9725-5.7311 6.3041-2.1538 3.6536 5.6053-1.5241 9.7978-5.0378 5.4767z" stroke-width=".08307"/>
  <path d="m79.974 40.637c2.8756-5.1652 6.0284-0.19188 5.1863 3.8086-1.3582 6.4521-6.0019 4.2665-6.0846 0.91343-0.16909-1.8264 0.36436-3.7629 0.89834-4.7221z" stroke-width=".08307"/>
  <path d="m85.194 49.387c-0.0057-1.4499 0.59505-3.5921 1.7185-4.4004 2.9501-2.1226 4.7446 1.6506 3.4548 4.7635-1.4081 3.3983-5.1612 2.6526-5.1733-0.36314z" stroke-width=".09374"/>
  <path d="m83.111 61.575c-0.70963-0.27462-1.0776-0.13044-1.4208 0.31724-4.384 5.7178-10.913-1.4932-5.0295-5.5315 0.54257-0.37241 0.9735-1.0894 0.53321-1.7223-3.2865-4.7244 5.874-7.9052 6.0618-1.2886 0.0199 0.70064 0.58099 1.2666 1.1435 1.2431 6.1792-0.25758 4.8374 9.3526-1.2883 6.982z" stroke-width=".13188"/>
  <path d="m53.288 92.377c-6.6198-3.2949-1.6507-10.665 2.9766-4.5009 2.2313 2.9726 0.63379 6.5494-2.9766 4.5009z" stroke-width=".072198"/>
  <path d="m55.247 84.404c-0.74782-0.91967-1.178-2.695-1.2664-3.3229-0.67795-4.8176 3.9725-5.7311 6.3041-2.1538 3.6536 5.6053-1.5241 9.7978-5.0378 5.4767z" stroke-width=".08307"/>
  <path d="m63.38 76.878c2.8756-5.1652 6.0284-0.19188 5.1863 3.8086-1.3582 6.4521-6.0019 4.2665-6.0846 0.91343-0.16909-1.8264 0.36436-3.7629 0.89834-4.7221z" stroke-width=".08307"/>
  <path d="m68.6 85.628c-0.0057-1.4499 0.59505-3.5921 1.7185-4.4004 2.9501-2.1226 4.7446 1.6506 3.4548 4.7635-1.4081 3.3983-5.1612 2.6526-5.1733-0.36314z" stroke-width=".09374"/>
  <path d="m66.517 97.816c-0.70963-0.27461-1.0776-0.13045-1.4208 0.31724-4.384 5.7178-10.913-1.4932-5.0295-5.5315 0.54257-0.37241 0.9735-1.0894 0.53321-1.7223-3.2865-4.7244 5.874-7.9052 6.0618-1.2886 0.0199 0.70064 0.58099 1.2666 1.1435 1.2431 6.1792-0.25758 4.8374 9.3526-1.2883 6.982z" stroke-width=".13188"/>
  <path d="m94.517 103.37c-6.6198-3.2949-1.6507-10.665 2.9766-4.5009 2.2313 2.9726 0.63379 6.5494-2.9766 4.5009z" stroke-width=".072198"/>
  <path d="m96.476 95.399c-0.74782-0.91968-1.178-2.695-1.2664-3.3229-0.67795-4.8176 3.9725-5.7311 6.3041-2.1538 3.6536 5.6054-1.5241 9.7978-5.0378 5.4767z" stroke-width=".08307"/>
  <path d="m104.61 87.873c2.8756-5.1652 6.0284-0.19188 5.1863 3.8086-1.3582 6.4521-6.0018 4.2666-6.0846 0.91343-0.16909-1.8264 0.36436-3.7629 0.89834-4.7221z" stroke-width=".08307"/>
  <path d="m109.83 96.622c-6e-3 -1.4499 0.59505-3.5921 1.7185-4.4004 2.9501-2.1226 4.7446 1.6506 3.4548 4.7636-1.4081 3.3983-5.1612 2.6526-5.1733-0.36313z" stroke-width=".09374"/>
  <path d="m107.75 108.81c-0.70963-0.27462-1.0776-0.13045-1.4208 0.31724-4.384 5.7178-10.913-1.4932-5.0295-5.5315 0.54257-0.37241 0.9735-1.0894 0.53321-1.7223-3.2865-4.7244 5.874-7.9052 6.0618-1.2886 0.0198 0.70064 0.58098 1.2666 1.1435 1.2431 6.1792-0.25758 4.8374 9.3526-1.2883 6.982z" stroke-width=".13188"/>
 </g>
</svg>
