<?xml version="1.0" encoding="UTF-8"?>
<!-- Created with Inkscape (http://www.inkscape.org/) -->
<svg width="512" height="512" version="1.1" viewBox="0 0 135.47 135.47" xmlns="http://www.w3.org/2000/svg">
 <g fill="#ffd4f1" stroke-linecap="round">
  <path transform="scale(.26458)" d="m209.25 203.48 0.41406 0.76758c-7.6191-1.0551-13.529 0.0463-20.396 2.9453-55.169 23.288-96.649 40.339-176.92 73.508-1.9264 0.78741-3.435 1.6632-4.5469 2.7168-1.114 1.0556-1.8877 2.4196-1.8086 3.9277 0.01292 0.24618 0.055154 0.48375 0.11133 0.71679 0.11382 6.7266 0.6735 10.28 1.2109 15.561 0.12468 1.225 0.25365 3.0828 1.3418 4.8867 1.0881 1.8039 3.1658 3.3393 6.3496 4.0371 95.389 22.823 182.99 43.225 280.02 66.785 5.7972 1.4601 12.883 1.7937 19.393 1.4531 6.5005-0.34016 12.322-1.2974 15.916-2.7969l0.0215-8e-3c54.192-21.85 110.56-46.028 171.64-70.873 1.9172-0.7799 2.9853-2.6232 3.5-4.5781s0.61447-4.2191 0.53125-6.7324c-0.1663-5.0266-1.1228-11.035-1.8691-16.594a1.9102 1.9102 0 0 0-0.0391-0.0664c-0.2283-1.2142-0.85482-2.3763-1.7988-3.2852-1.4894-1.434-3.6418-2.4402-6.4805-3.1602l-0.0234-6e-3h-0.0215c-11.773-2.6712-32.856-8.0553-51.961-12.934-9.5522-2.4392-18.618-4.7583-25.793-6.5488-7.128-1.7788-12.235-3.0091-14.461-3.3945l-0.0957-0.0234c-40.361-9.0183-82.599-19.126-124.03-29.189-15.995 12.448-32.065 25.006-47.914 37.309-5.2756 4.0953-5.2507 4.0719-13.172 4.9766-2.0327 0.23212-3.4162 0.40013-4.3457 0.42188-1.5377 1.6635-3.8101 4.7091-4.4824 9.7441-0.60613 4.408 0.97286 10.488 5.8184 15.117 4.8135 4.5142 11.847 8.5385 19.975 9.0742 6.8909 0.52033 13.903-1.0416 21.74-3.3379 7.3418-2.1854 15.001-5.0727 23.35-7.2207 4.9239-1.2876 10.221-2.268 15.639-2.3672 2.8726-0.0526 5.7373 0.14351 8.5742 0.64844 6.1363 1.1765 11.412 4.5241 15.359 8.7324 3.9252 4.1781 6.8062 8.653 10.02 12.307 3.6413 4.1056 7.8728 7.2272 12.506 8.5898 7.9088 2.4849 16.945 0.86524 23.881-0.75 21.101-5.1303 30.859-15.701 31.414-15.207 0.60684 0.53943-7.7393 12.469-30.451 18.871-7.079 2.0679-16.665 4.0597-26.127 1.5332-5.6816-1.6138-10.78-5.1074-14.93-9.7266-3.5918-3.9671-6.519-8.3999-10.055-12.053-3.389-3.4918-7.761-6.2921-12.564-7.1113-2.4419-0.45807-4.9528-0.62683-7.5195-0.56836-4.8361 0.11017-9.7502 1.0245-14.459 2.1797-7.9903 1.9955-15.656 4.7942-23.256 6.9258-8.0636 2.2977-15.767 3.7445-23.5 3.0195-9.4021-0.95741-17.062-5.7289-22.129-10.975-5.6079-5.6953-6.8186-13.013-5.7109-18.119 1.1434-5.1694 3.602-8.0997 5.5644-9.6094-0.37139-0.56909 0.69831-2.0011 2.5918-5.0449 4.786-7.6938 4.8243-7.6951 9.873-11.629 9.7614-7.6064 25.307-19.783 38.004-29.699-16.84-4.104-33.495-8.1757-49.754-12.137h-8e-3v-6e-3c-0.0113-3e-3 -0.018 3e-3 -0.0293 0zm291.93 82.346c0.48346 3.6048 0.9216 7.1404 1.0195 10.098 0.0767 2.3176-0.0554 4.3064-0.40625 5.6387-0.35074 1.3322-0.77989 1.8147-1.2402 2.002-61.129 24.865-117.51 49.051-171.65 70.881l-0.0156 6e-3 -8e-3 8e-3c-2.6964 1.1281-8.4315 2.1839-14.66 2.5098-6.2286 0.32591-13.054-0.0259-18.256-1.3359l-8e-3 -8e-3h-6e-3c-97.073-23.571-184.69-43.973-280.09-66.799l-0.02148-8e-3h-0.01563c-2.4515-0.5371-3.3558-1.3908-3.8965-2.2871-0.54064-0.89626-0.6854-2.052-0.8125-3.3008-0.41367-4.0644-0.77598-7.1993-0.99805-11.182 0.83994 0.3631 1.7771 0.66889 2.8359 0.92188 89.388 21.357 175.81 41.931 281.32 66.953 10.134 2.4362 25.633 1.5739 34.496-2.0527 56.118-23.02 108.78-44.185 164.72-67.705l8e-3 -8e-3c3.2278-1.251 5.835-2.676 7.6914-4.332z" color="#000000" stroke-width="3.7795" style="-inkscape-stroke:none"/>
  <path d="m108.28 27.129c-0.58641-0.03987-1.2107 0.11604-1.7676 0.52734l-0.0156 0.01172-0.62305 0.45898 0.0215 0.01367c-14.92 11.849-35.332 27.801-46.647 36.617-1.3349 1.0401-1.4694 1.1782-2.7363 3.2148-0.24149 0.38821-0.43322 0.67413-0.57226 0.91602-0.06952 0.12094-0.1277 0.22886-0.17188 0.36328s-0.09102 0.34233 0.0293 0.57227c0.12032 0.22993 0.35023 0.32212 0.49805 0.35156 0.14782 0.02944 0.27294 0.02833 0.41602 0.02148 0.28614-0.01369 0.64222-0.06139 1.1309-0.11719 2.0949-0.23925 2.3521-0.34022 3.748-1.4238 15.885-12.331 32.172-24.971 47.951-37.686l6e-3 -0.0059 6e-3 -0.0039c0.58706-0.50345 0.90028-1.1024 0.91992-1.6914 0.0196-0.58903-0.25075-1.1221-0.6543-1.4941-0.40354-0.37206-0.95265-0.60662-1.5391-0.64648zm-0.0547 1.0547c0.34699 0.02764 0.65876 0.17172 0.875 0.37109 0.21624 0.19937 0.3247 0.43113 0.31641 0.67969-8e-3 0.24855-0.13004 0.55938-0.55273 0.92188-15.765 12.703-32.041 25.336-47.922 37.664-1.3958 1.0835-1.124 0.96954-3.2207 1.209-0.30984 0.03538-0.46449 0.04807-0.66406 0.06836 0.10683-0.17004 0.1936-0.30934 0.35352-0.56641 1.2657-2.0346 1.1515-1.8979 2.4883-2.9395 11.458-8.9287 32.271-25.188 47.242-37.084 0.35599-0.26291 0.73699-0.35185 1.084-0.32422z" color="#000000" style="-inkscape-stroke:none"/>
 </g>
</svg>
